<?xml version="1.0" standalone="no"?>
<!DOCTYPE svg PUBLIC "-//W3C//DTD SVG 20010904//EN"
 "http://www.w3.org/TR/2001/REC-SVG-20010904/DTD/svg10.dtd">
<svg version="1.0" xmlns="http://www.w3.org/2000/svg"
 width="260.000000pt" height="260.000000pt" viewBox="0 0 260.000000 260.000000"
 preserveAspectRatio="xMidYMid meet">
<metadata>
Created by potrace 1.14, written by Peter Selinger 2001-2017
</metadata>
<g transform="translate(0.000000,260.000000) scale(0.100000,-0.100000)"
fill="#000000" stroke="none">
<path d="M940 1815 l0 -235 365 0 365 0 0 235 0 235 -365 0 -365 0 0 -235z"/>
<path d="M1030 1305 l0 -235 275 0 275 0 0 235 0 235 -275 0 -275 0 0 -235z"/>
<path d="M940 795 l0 -235 360 0 360 0 0 235 0 235 -360 0 -360 0 0 -235z"/>
</g>
</svg>
